<svg xmlns="http://www.w3.org/2000/svg" width="14.54" height="10.905" viewBox="0 0 14.54 10.905">
  <path id="envelope" d="M14.265,67.6a.171.171,0,0,1,.275.133v5.808a1.363,1.363,0,0,1-1.363,1.363H1.363A1.363,1.363,0,0,1,0,73.542v-5.8A.17.17,0,0,1,.275,67.6c.636.494,1.48,1.122,4.376,3.226.6.437,1.61,1.357,2.618,1.352s2.045-.931,2.621-1.352C12.788,68.726,13.629,68.1,14.265,67.6ZM7.27,71.27c.659.011,1.607-.829,2.084-1.176,3.768-2.735,4.055-2.973,4.924-3.655a.68.68,0,0,0,.261-.537v-.54A1.363,1.363,0,0,0,13.177,64H1.363A1.363,1.363,0,0,0,0,65.363v.54a.684.684,0,0,0,.261.537c.869.679,1.156.92,4.924,3.655C5.663,70.441,6.611,71.281,7.27,71.27Z" transform="translate(0 -64)" fill="#c4212d"/>
</svg>
